Coordinates
version=1
nRows=38
nColumns=12
inDegrees=yes

Units are S.I. units (second, meters, Newtons, ...)
Angles are in degrees

endheader
time	SC_y	SC_z	SC_x	AC_y	AC_z	AC_x	GH_y	GH_z	GH_yy	EL_x	PS_y
       0.0              -16.66          7.143          41.77          32.65          6.949         -4.925          -31.3           69.1         -153.1          39.35          61.01
  0.006695              -16.66          7.145          41.77          32.66          6.945         -4.926         -31.31           69.1         -153.0          39.36          61.01
   0.01339              -16.66          7.147          41.77          32.66          6.942         -4.928         -31.32          69.09         -153.0          39.36          61.01
   0.02008              -16.66           7.15          41.77          32.67          6.938         -4.929         -31.34          69.09         -152.9          39.37          61.01
   0.02678              -16.66          7.153          41.77          32.67          6.933         -4.931         -31.35          69.08         -152.9          39.38          61.01
   0.03347              -16.66          7.156          41.77          32.68          6.929         -4.932         -31.37          69.07         -152.8          39.39          61.01
   0.04017              -16.66          7.159          41.77          32.69          6.924         -4.934         -31.39          69.07         -152.7           39.4          61.02
   0.04686              -16.66          7.162          41.78          32.69          6.919         -4.936         -31.41          69.06         -152.7          39.41          61.02
   0.05356              -16.66          7.166          41.78           32.7          6.914         -4.938         -31.43          69.06         -152.6          39.42          61.02
   0.06025              -16.66           7.17          41.78          32.71          6.908          -4.94         -31.45          69.05         -152.5          39.44          61.02
   0.06695              -16.66          7.174          41.78          32.72          6.902         -4.942         -31.47          69.04         -152.4          39.45          61.03
   0.07364              -16.66          7.178          41.78          32.73          6.895         -4.944          -31.5          69.03         -152.3          39.46          61.03
   0.08034              -16.66          7.183          41.78          32.74          6.887         -4.947         -31.53          69.02         -152.2          39.48          61.03
   0.08703              -16.66          7.188          41.78          32.75           6.88          -4.95         -31.56          69.01         -152.1           39.5          61.03
   0.09373              -16.66          7.194          41.78          32.76          6.871         -4.953         -31.59           69.0         -152.0          39.51          61.04
    0.1004              -16.66            7.2          41.78          32.77          6.862         -4.956         -31.62          68.99         -151.9          39.53          61.04
    0.1071              -16.66          7.206          41.79          32.78          6.852          -4.96         -31.66          68.98         -151.7          39.55          61.05
    0.1138              -16.66          7.214          41.79           32.8          6.841         -4.964          -31.7          68.96         -151.6          39.58          61.05
    0.1205              -16.66          7.221          41.79          32.81          6.829         -4.968         -31.75          68.95         -151.4           39.6          61.06
    0.1272              -16.66           7.23          41.79          32.83          6.816         -4.973          -31.8          68.93         -151.3          39.63          61.06
    0.1339              -16.66          7.239          41.79          32.85          6.801         -4.978         -31.85          68.91         -151.1          39.66          61.07
    0.1406              -16.66           7.25           41.8          32.87          6.786         -4.984         -31.91          68.89         -150.9          39.69          61.07
    0.1473              -16.66          7.261           41.8           32.9          6.768          -4.99         -31.98          68.87         -150.6          39.73          61.08
     0.154              -16.66          7.274           41.8          32.92          6.749         -4.997         -32.05          68.85         -150.4          39.77          61.09
    0.1607              -16.66          7.288           41.8          32.95          6.727         -5.004         -32.13          68.82         -150.1          39.82           61.1
    0.1674              -16.65          7.304          41.81          32.99          6.703         -5.013         -32.22          68.79         -149.7          39.87          61.11
    0.1741              -16.65          7.321          41.81          33.02          6.677         -5.023         -32.32          68.76         -149.4          39.93          61.12
    0.1808              -16.65          7.341          41.82          33.06          6.646         -5.034         -32.44          68.72         -149.0          39.99          61.13
    0.1875              -16.65          7.364          41.82          33.11          6.612         -5.046         -32.57          68.68         -148.5          40.06          61.14
    0.1942              -16.65          7.389          41.83          33.16          6.573          -5.06         -32.71          68.63         -148.0          40.14          61.16
    0.2008              -16.65          7.418          41.83          33.22          6.529         -5.076         -32.88          68.57         -147.4          40.24          61.18
    0.2075              -16.65          7.452          41.84          33.29          6.478         -5.094         -33.07          68.51         -146.7          40.35           61.2
    0.2142              -16.65           7.49          41.85          33.37           6.42         -5.115         -33.29          68.43         -145.9          40.47          61.22
    0.2209              -16.65          7.535          41.86          33.46          6.351         -5.139         -33.55          68.35         -145.0          40.61          61.25
    0.2276              -16.64          7.587          41.87          33.57          6.272         -5.168         -33.85          68.25         -143.9          40.78          61.28
    0.2343              -16.64          7.649          41.89           33.7          6.178         -5.201         -34.21          68.13         -142.6          40.98          61.32
     0.241              -16.64          7.722           41.9          33.85          6.066         -5.241         -34.63          67.99         -141.1          41.22          61.37
    0.2477              -16.63           7.81          41.92          34.03          5.932         -5.289         -35.14          67.82         -139.3           41.5          61.42
